<svg width="87" height="87" viewBox="0 0 87 87" fill="none" xmlns="http://www.w3.org/2000/svg">
<rect width="87" height="87" rx="43.5" fill="black" fill-opacity="0.01"/>
<path d="M24.2727 56H16.0227V32.7273H24.3409C26.6818 32.7273 28.697 33.1932 30.3864 34.125C32.0758 35.0492 33.375 36.3788 34.2841 38.1136C35.2008 39.8485 35.6591 41.9242 35.6591 44.3409C35.6591 46.7652 35.2008 48.8485 34.2841 50.5909C33.375 52.3333 32.0682 53.6705 30.3636 54.6023C28.6667 55.5341 26.6364 56 24.2727 56ZM20.9432 51.7841H24.0682C25.5227 51.7841 26.7462 51.5265 27.7386 51.0114C28.7386 50.4886 29.4886 49.6818 29.9886 48.5909C30.4962 47.4924 30.75 46.0758 30.75 44.3409C30.75 42.6212 30.4962 41.2159 29.9886 40.125C29.4886 39.0341 28.7424 38.2311 27.75 37.7159C26.7576 37.2008 25.5341 36.9432 24.0795 36.9432H20.9432V51.7841ZM39.304 56V32.7273H54.9858V36.7841H44.2244V42.3295H54.179V46.3864H44.2244V51.9432H55.0312V56H39.304ZM58.8977 56V32.7273H63.8182V51.9432H73.7955V56H58.8977Z" fill="white"/>
</svg>
